<svg width="28" height="23" viewBox="0 0 28 23" fill="none" xmlns="http://www.w3.org/2000/svg">
<path d="M9.1985 10.688C10.2652 11.1573 11.0972 11.8613 11.6945 12.8C12.2918 13.7387 12.5905 14.848 12.5905 16.128C12.5905 17.9627 12.0145 19.456 10.8625 20.608C9.7105 21.7173 8.2385 22.272 6.4465 22.272C4.6545 22.272 3.16117 21.696 1.9665 20.544C0.8145 19.392 0.2385 17.92 0.2385 16.128C0.2385 15.2747 0.345167 14.4213 0.5585 13.568C0.771833 12.7147 1.24117 11.4347 1.9665 9.728L5.6785 0.511997H12.0145L9.1985 10.688ZM24.3025 10.688C25.3692 11.1573 26.2012 11.8613 26.7985 12.8C27.3958 13.7387 27.6945 14.848 27.6945 16.128C27.6945 17.9627 27.1185 19.456 25.9665 20.608C24.8145 21.7173 23.3425 22.272 21.5505 22.272C19.7585 22.272 18.2652 21.696 17.0705 20.544C15.9185 19.392 15.3425 17.92 15.3425 16.128C15.3425 15.2747 15.4492 14.4213 15.6625 13.568C15.8758 12.7147 16.3452 11.4347 17.0705 9.728L20.7825 0.511997H27.1185L24.3025 10.688Z" fill="#005AFF"/>
</svg>
